M48
; DRILL file {KiCad 6.0.7-f9a2dced07~116~ubuntu20.04.1} date Tue 16 Aug 2022 09:03:48 -03
; FORMAT={-:-/ absolute / inch / decimal}
; #@! TF.CreationDate,2022-08-16T09:03:48-03:00
; #@! TF.GenerationSoftware,Kicad,Pcbnew,6.0.7-f9a2dced07~116~ubuntu20.04.1
; #@! TF.FileFunction,MixedPlating,1,2
FMAT,2
INCH
; #@! TA.AperFunction,Plated,PTH,ComponentDrill
T1C0.0276
; #@! TA.AperFunction,Plated,PTH,ComponentDrill
T2C0.0295
; #@! TA.AperFunction,Plated,PTH,ComponentDrill
T3C0.0315
; #@! TA.AperFunction,Plated,PTH,ComponentDrill
T4C0.0350
; #@! TA.AperFunction,Plated,PTH,ComponentDrill
T5C0.0354
; #@! TA.AperFunction,Plated,PTH,ComponentDrill
T6C0.0394
; #@! TA.AperFunction,Plated,PTH,ComponentDrill
T7C0.0398
; #@! TA.AperFunction,Plated,PTH,ComponentDrill
T8C0.0433
; #@! TA.AperFunction,Plated,PTH,ComponentDrill
T9C0.0472
; #@! TA.AperFunction,Plated,PTH,ComponentDrill
T10C0.0512
; #@! TA.AperFunction,Plated,PTH,ComponentDrill
T11C0.0551
; #@! TA.AperFunction,Plated,PTH,ComponentDrill
T12C0.0618
; #@! TA.AperFunction,Plated,PTH,ComponentDrill
T13C0.0630
; #@! TA.AperFunction,NonPlated,NPTH,ComponentDrill
T14C0.0886
; #@! TA.AperFunction,NonPlated,NPTH,ComponentDrill
T15C0.1063
; #@! TA.AperFunction,NonPlated,NPTH,ComponentDrill
T16C0.1260
; #@! TA.AperFunction,NonPlated,NPTH,ComponentDrill
T17C0.1280
%
G90
G05
T1
X7.8912Y-2.9508
X7.8912Y-3.1508
X7.8912Y-3.3508
X7.8912Y-3.6508
X8.1912Y-2.9508
X8.1912Y-3.1508
X8.1912Y-3.3508
X8.1912Y-3.6508
T2
X7.663Y-3.5327
X7.663Y-3.5827
X7.663Y-3.6327
T3
X4.6197Y-4.2323
X4.6197Y-4.3898
X4.6197Y-4.5532
X4.6197Y-4.7132
X4.7441Y-3.549
X4.7441Y-3.949
X4.9016Y-3.549
X4.9016Y-3.949
X5.0197Y-4.2323
X5.0197Y-4.3898
X5.0197Y-4.5532
X5.0197Y-4.7132
X5.1087Y-3.5324
X5.1087Y-3.8324
X5.17Y-3.1962
X5.2087Y-3.5324
X5.2087Y-3.8324
X5.2684Y-3.1962
X5.3087Y-3.5324
X5.3087Y-3.8324
X5.4087Y-3.5324
X5.4087Y-3.8324
X5.4647Y-3.1962
X5.5087Y-3.5324
X5.5087Y-3.8324
X5.5631Y-3.1962
X5.6087Y-3.5324
X5.6087Y-3.8324
X5.7087Y-3.5324
X5.7087Y-3.8324
X6.2872Y-4.4513
X6.2872Y-4.8513
X6.3472Y-4.0713
X6.3472Y-4.2313
X6.3583Y-2.5953
X6.3583Y-2.9953
X6.4024Y-3.5309
X6.4024Y-3.8309
X6.5024Y-3.5309
X6.5024Y-3.8309
X6.5157Y-2.5984
X6.5157Y-2.9984
X6.5272Y-4.4913
X6.5272Y-4.7913
X6.6024Y-3.5309
X6.6024Y-3.8309
X6.6272Y-4.4913
X6.6272Y-4.7913
X6.7024Y-3.5309
X6.7024Y-3.8309
X6.7472Y-4.0713
X6.7472Y-4.2313
X6.8024Y-3.5309
X6.8024Y-3.8309
X6.9024Y-3.5309
X6.9024Y-3.8309
X6.9072Y-4.4913
X6.9072Y-4.7913
X6.9094Y-2.9331
X6.9472Y-4.0713
X6.9472Y-4.2313
X7.0024Y-3.5309
X7.0024Y-3.8309
X7.0072Y-4.4913
X7.0072Y-4.7913
X7.1024Y-3.5309
X7.1024Y-3.8309
X7.1072Y-4.4913
X7.1072Y-4.7913
X7.2024Y-3.5309
X7.2024Y-3.8309
X7.2072Y-4.4913
X7.2072Y-4.7913
X7.3024Y-3.5309
X7.3024Y-3.8309
X7.3094Y-2.9331
X7.3472Y-4.0713
X7.3472Y-4.2313
X7.5197Y-2.9268
X7.5197Y-3.3268
X7.7181Y-2.9331
X7.7181Y-3.3331
T4
X7.5936Y-2.6819
X7.6838Y-2.6819
X7.7235Y-2.422
X7.7635Y-2.4921
X7.8035Y-2.422
X7.8435Y-2.4921
X7.8835Y-2.422
X7.9235Y-2.4921
X7.9635Y-2.422
X8.0035Y-2.4921
X8.0436Y-2.6819
X8.1338Y-2.6819
T5
X4.1033Y-3.8278
X4.2033Y-3.8278
X4.3789Y-3.8297
X4.4789Y-3.8297
X5.3455Y-4.2022
X5.3455Y-4.3022
X5.7982Y-4.2022
X5.7982Y-4.3022
X6.437Y-3.1785
X6.437Y-3.2785
X7.8881Y-3.852
X8.1881Y-3.852
T6
X5.2165Y-4.5472
X5.2165Y-4.7244
X5.4724Y-4.5472
X5.4724Y-4.7244
X5.6693Y-4.5472
X5.6693Y-4.7244
X5.9252Y-4.5472
X5.9252Y-4.7244
X5.9449Y-3.5324
X5.9449Y-3.8277
X6.1902Y-3.5324
X6.1902Y-3.8277
T7
X6.9557Y-2.4329
X6.9557Y-2.7329
X7.0557Y-2.4329
X7.1557Y-2.4329
X7.2557Y-2.4329
X7.2557Y-2.7329
T8
X5.2765Y-2.9334
X5.3765Y-2.9334
X5.4765Y-2.9334
X6.1024Y-2.6953
X6.1024Y-2.7953
X6.1024Y-2.8953
T9
X6.0743Y-2.2441
X6.2243Y-2.2441
X6.3743Y-2.2441
X6.5243Y-2.2441
T10
X4.252Y-2.6969
X4.252Y-3.5551
T11
X4.485Y-2.4409
X4.685Y-2.4409
T12
X7.5436Y-2.4571
X8.1838Y-2.4571
T13
X4.4094Y-4.252
X4.4094Y-4.4882
X4.4094Y-4.7244
X8.1693Y-4.0945
X8.1693Y-4.3307
X8.1693Y-4.5669
X8.1693Y-4.8031
T14
X7.1057Y-2.5829
T15
X4.252Y-3.126
T16
X4.1732Y-2.2047
X4.1732Y-4.8819
X8.4252Y-2.2047
X8.4252Y-4.8819
T17
X7.6137Y-2.322
X8.1137Y-2.322
T0
M30
